# xmcd CD database file
#
# Track frame offsets:
#	150
#	6079
#	25580
#	38320
#	47043
#	72963
#	84311
#	93682
#	103927
#	116454
#	128588
#	144571
#	157010
#	163281
#	171959
#	182486
#	197867
#	217221
#	229368
#	238053
#	247772
#	255472
#	270432
#	300576
#
# Disc length: 4284 seconds
#
# Revision: 0
# Processed by: cddbd v1.5.2PL0 Copyright (c) Steve Scherf et al.
# Submitted via: CDex 1.40Beta8
#
DISCID=4510ba18
DTITLE=Delmiro Barros - Forró 1ª De Luxo
DYEAR=2006
DGENRE=Forró
TTITLE0=Abertura
TTITLE1=Cajueiro
TTITLE2=Migalhas de Amor
TTITLE3=Fogo de Desejo
TTITLE4=Como Te Vejo
TTITLE5=Meu Ex-Amor
TTITLE6=Sonho de Poeta
TTITLE7=Volta Prá Mim
TTITLE8=Chuva de Saudade
TTITLE9=Coração Desarrumado
TTITLE10=Adeus
TTITLE11=Morrendo de Amor
TTITLE12=Paixão Prá Mais de Mil
TTITLE13=Só Quero Quem Me Quer
TTITLE14=Casa do Coração
TTITLE15=Vou Mais Demora
TTITLE16=Voltando a Serrinha
TTITLE17=Quero Você
TTITLE18=Enchendo e Derramando
TTITLE19=Ingratidão
TTITLE20=Alegria Presa
TTITLE21=1ª de Luxo
TTITLE22=Boi de Carro
TTITLE23=Sou Poeta
EXTD=YEAR: 2006
EXTT0=
EXTT1=
EXTT2=
EXTT3=
EXTT4=
EXTT5=
EXTT6=
EXTT7=
EXTT8=
EXTT9=
EXTT10=
EXTT11=
EXTT12=
EXTT13=
EXTT14=
EXTT15=
EXTT16=
EXTT17=
EXTT18=
EXTT19=
EXTT20=
EXTT21=
EXTT22=
EXTT23=
PLAYORDER=
